<?xml version="1.0" standalone="no"?>
<!DOCTYPE svg PUBLIC "-//W3C//DTD SVG 20010904//EN"
 "http://www.w3.org/TR/2001/REC-SVG-20010904/DTD/svg10.dtd">
<svg version="1.0" xmlns="http://www.w3.org/2000/svg"
 width="500.000000pt" height="500.000000pt" viewBox="0 0 500.000000 500.000000"
 preserveAspectRatio="xMidYMid meet">

<g transform="translate(0.000000,500.000000) scale(0.100000,-0.100000)"
fill="#000000" stroke="none">
<path d="M2368 3550 c-435 -79 -738 -430 -740 -854 0 -103 18 -236 32 -236 4
0 15 18 24 40 l16 40 74 0 c271 0 564 -72 693 -169 l51 -39 22 23 c34 36 146
91 245 120 125 36 247 55 407 62 l137 6 7 -27 c11 -46 23 -15 31 79 16 178 -9
320 -82 472 -141 290 -430 478 -755 488 -63 2 -136 0 -162 -5z m417 -140 c0
-10 -12 -16 -32 -18 -32 -3 -32 -3 -35 -65 -3 -60 -4 -62 -33 -68 -40 -9 -310
-10 -357 -3 l-38 7 0 63 0 64 -34 0 c-36 0 -52 12 -41 30 4 7 105 9 288 8 243
-3 282 -5 282 -18z m-337 -186 l42 -5 0 -98 c0 -96 0 -97 -30 -119 -23 -18
-30 -30 -30 -57 0 -27 7 -39 30 -57 l30 -22 0 -229 c0 -135 -4 -227 -9 -225
-5 2 -36 44 -68 93 -64 97 -207 274 -230 282 -19 8 -16 38 11 91 31 61 72 193
81 257 14 109 9 102 73 98 31 -2 76 -6 100 -9z m274 -52 c10 -87 43 -202 83
-290 l35 -75 -71 -74 c-78 -82 -173 -208 -210 -278 -44 -83 -49 -66 -49 178
l0 223 30 26 c22 19 30 35 30 60 0 39 -7 51 -37 67 -21 11 -23 18 -23 106 0
59 4 96 11 101 12 7 164 23 184 19 6 -1 13 -29 17 -63z"/>
<path d="M2320 3346 c0 -31 5 -46 16 -50 9 -3 82 -6 164 -6 82 0 155 3 164 6
11 4 16 19 16 50 l0 44 -180 0 -180 0 0 -44z"/>
<path d="M2316 3143 c-11 -73 -36 -160 -72 -247 l-33 -78 61 -69 c34 -38 88
-105 120 -150 l58 -81 0 166 c0 106 -4 166 -10 166 -17 0 -50 63 -50 97 0 22
10 44 30 66 27 31 30 41 30 104 l0 70 -64 2 -64 2 -6 -48z"/>
<path d="M2550 3115 c0 -59 3 -77 15 -82 23 -8 45 -57 45 -98 0 -27 -8 -44
-30 -67 l-30 -30 0 -160 0 -161 66 89 c36 49 91 115 121 146 40 40 54 62 50
75 -3 10 -21 56 -41 102 -19 46 -43 124 -52 173 l-18 88 -63 0 -63 0 0 -75z"/>
<path d="M1733 3529 c-44 -22 -53 -34 -30 -42 10 -4 10 -7 0 -18 -10 -9 -13
-10 -13 -1 0 24 -20 11 -39 -25 -11 -21 -51 -78 -90 -126 -39 -48 -71 -94 -71
-101 0 -8 -7 -16 -15 -19 -12 -5 -13 13 -8 126 4 99 3 139 -7 157 l-13 24 -18
-36 c-41 -81 -42 -185 -2 -280 9 -20 13 -44 10 -52 -14 -36 11 -10 53 55 75
117 117 161 189 199 50 26 74 47 99 84 52 78 37 96 -45 55z"/>
<path d="M3195 3531 c11 -60 53 -105 137 -147 41 -21 71 -47 108 -94 28 -36
58 -73 66 -83 8 -9 14 -22 14 -27 0 -6 4 -10 10 -10 5 0 12 -11 16 -25 3 -14
10 -25 15 -25 5 0 6 7 3 15 -4 9 4 39 17 68 31 72 31 171 -1 246 -21 48 -25
52 -37 35 -14 -19 -13 -229 1 -252 4 -7 3 -19 -2 -29 -8 -14 -13 -10 -34 23
-14 21 -51 71 -83 109 -31 39 -66 86 -76 105 -26 50 -40 65 -79 89 -45 27 -80
28 -75 2z m125 -61 c0 -5 -4 -10 -10 -10 -5 0 -10 5 -10 10 0 6 5 10 10 10 6
0 10 -4 10 -10z"/>
<path d="M3385 3161 c-4 -8 60 -79 98 -109 18 -13 63 -33 86 -38 8 -2 25 -5
38 -9 l23 -5 -22 45 c-13 26 -25 40 -29 34 -4 -8 -22 -1 -52 20 -57 39 -135
73 -142 62z"/>
<path d="M1548 3141 c-21 -11 -54 -29 -75 -42 -21 -13 -45 -23 -53 -21 -9 1
-22 -13 -32 -38 l-17 -41 37 7 c69 12 134 53 182 114 27 34 29 40 13 40 -10
-1 -35 -9 -55 -19z"/>
<path d="M1415 3100 c-3 -5 -2 -10 4 -10 5 0 13 5 16 10 3 6 2 10 -4 10 -5 0
-13 -4 -16 -10z"/>
<path d="M1261 3073 c-5 -10 -9 -21 -10 -25 -1 -5 -1 -11 -2 -15 -2 -19 1 -99
4 -113 8 -33 28 -72 47 -92 23 -25 23 -25 36 29 8 31 8 40 -1 37 -14 -6 -25
46 -25 118 0 25 -3 53 -6 62 -8 21 -31 20 -43 -1z"/>
<path d="M3704 3079 c-8 -14 -10 -25 -14 -104 -3 -70 -9 -87 -26 -81 -9 3 -12
1 -9 -4 9 -14 17 -51 16 -74 0 -18 1 -18 21 0 30 28 56 85 63 140 10 75 -26
162 -51 123z"/>
<path d="M3550 2830 c6 -11 8 -20 5 -20 -3 0 4 -23 15 -51 23 -62 68 -129 85
-129 7 0 16 -7 19 -16 10 -27 18 -9 20 48 2 29 1 43 -1 30 -6 -29 -17 -21 -42
31 -12 24 -37 62 -57 85 -37 44 -62 57 -44 22z"/>
<path d="M1413 2818 c-27 -32 -64 -86 -67 -101 -6 -26 -18 -47 -26 -42 -13 8
-19 -21 -12 -50 l8 -27 45 49 c28 29 55 72 68 106 32 87 26 111 -16 65z"/>
<path d="M1311 2744 c0 -11 3 -14 6 -6 3 7 2 16 -1 19 -3 4 -6 -2 -5 -13z"/>
<path d="M1157 2612 c-19 -38 77 -168 133 -180 7 -2 27 -13 44 -25 26 -18 29
-18 16 -3 -8 11 -14 21 -12 23 7 9 1 43 -7 38 -11 -6 -12 -5 -71 72 -38 50
-95 91 -103 75z"/>
<path d="M3803 2600 c-17 -10 -51 -46 -74 -80 -24 -33 -48 -59 -54 -56 -7 2
-12 -1 -13 -7 -2 -22 -7 -42 -15 -54 -10 -16 102 43 129 68 13 12 35 45 51 75
33 64 25 84 -24 54z"/>
<path d="M1311 2574 c0 -11 3 -14 6 -6 3 7 2 16 -1 19 -3 4 -6 -2 -5 -13z"/>
<path d="M1426 2514 c-3 -10 -6 -23 -7 -29 0 -5 -4 -14 -8 -20 -5 -5 -9 -41
-10 -80 -2 -38 -7 -73 -13 -76 -7 -4 -6 -9 1 -13 6 -4 9 -11 6 -15 -2 -5 2
-16 9 -26 12 -17 14 -17 32 10 25 39 33 219 11 249 -14 20 -15 20 -21 0z"/>
<path d="M3556 2522 c-12 -19 -17 -53 -17 -117 0 -51 5 -100 11 -100 1 0 3 -8
5 -17 4 -23 32 -51 39 -40 16 26 25 62 14 59 -7 -1 -10 23 -9 73 1 77 -26 169
-43 142z"/>
<path d="M3625 2339 c-4 -6 -5 -12 -2 -15 2 -3 7 2 10 11 7 17 1 20 -8 4z"/>
<path d="M1290 2180 c5 -10 7 -20 4 -23 -6 -6 74 -87 84 -85 4 1 23 -3 42 -9
20 -5 50 -8 67 -6 l32 5 -22 33 c-12 18 -25 31 -28 29 -4 -2 -33 12 -65 31
-32 19 -63 35 -68 36 -6 0 -21 2 -33 3 -18 2 -20 -1 -13 -14z"/>
<path d="M3653 2185 c-18 -7 -49 -25 -70 -39 -21 -14 -44 -26 -53 -26 -8 -1
-33 -29 -55 -63 -50 -78 -57 -94 -17 -42 26 34 37 40 69 41 82 3 133 27 167
79 40 61 25 79 -41 50z"/>
<path d="M1440 2185 c0 -5 5 -17 10 -25 5 -8 10 -10 10 -5 0 6 -5 17 -10 25
-5 8 -10 11 -10 5z"/>
<path d="M3536 2155 c-9 -26 -7 -32 5 -12 6 10 9 21 6 23 -2 3 -7 -2 -11 -11z"/>
<path d="M1862 2086 c18 -25 39 -43 46 -41 43 15 224 46 302 52 59 4 89 10 87
17 -2 7 -78 12 -236 14 l-232 2 33 -44z"/>
<path d="M2727 2116 c-4 -10 13 -15 76 -20 71 -6 251 -37 289 -51 7 -2 28 15
46 40 l33 45 -220 0 c-175 0 -220 -3 -224 -14z"/>
<path d="M1589 2115 c-5 -42 6 -116 22 -146 15 -29 -6 -23 -30 7 -12 15 -21
23 -21 19 0 -13 91 -115 102 -115 13 0 3 88 -18 150 -15 45 -52 104 -55 85z"/>
<path d="M2408 2113 c12 -2 30 -2 40 0 9 3 -1 5 -23 4 -22 0 -30 -2 -17 -4z"/>
<path d="M2558 2113 c12 -2 30 -2 40 0 9 3 -1 5 -23 4 -22 0 -30 -2 -17 -4z"/>
<path d="M3393 2103 c-4 -10 -11 -21 -15 -24 -5 -3 -11 -15 -13 -25 -2 -10 -4
-20 -5 -21 -2 -2 -4 -7 -5 -13 -1 -5 -3 -11 -5 -12 -10 -14 -20 -128 -11 -128
10 0 81 77 81 87 0 4 -5 2 -12 -5 -21 -21 -27 -13 -13 21 20 48 29 123 16 131
-6 4 -14 -1 -18 -11z"/>
<path d="M1531 2033 c7 -12 15 -20 18 -17 3 2 -3 12 -13 22 -17 16 -18 16 -5
-5z"/>
<path d="M1666 1862 c-7 -11 51 -28 61 -18 4 3 -3 6 -13 6 -11 0 -25 5 -31 11
-7 7 -13 7 -17 1z"/>
<path d="M3310 1860 c-13 -8 -13 -10 2 -10 9 0 20 5 23 10 8 13 -5 13 -25 0z"/>
<path d="M2255 1850 c-9 -15 130 -35 240 -35 108 0 259 21 250 35 -6 10 -484
10 -490 0z"/>
<path d="M1515 1830 c-3 -6 2 -13 12 -17 10 -4 20 -9 23 -12 3 -3 20 -14 38
-24 l32 -18 0 38 0 39 -49 2 c-28 1 -53 -3 -56 -8z"/>
<path d="M3380 1797 l0 -38 52 28 c71 38 72 51 3 50 l-55 -1 0 -39z"/>
<path d="M1955 1812 c-11 -2 -24 -8 -29 -12 -5 -5 1 -6 13 -3 19 5 21 1 22
-48 l2 -54 7 60 c3 33 6 60 6 61 -1 0 -10 -2 -21 -4z"/>
<path d="M3017 1809 c6 -8 14 -37 16 -64 4 -45 4 -44 3 9 -1 43 -5 61 -16 64
-12 4 -13 2 -3 -9z"/>
<path d="M3050 1799 c0 -5 5 -7 10 -4 6 3 10 8 10 11 0 2 -4 4 -10 4 -5 0 -10
-5 -10 -11z"/>
<path d="M3090 1790 c0 -5 5 -10 11 -10 5 0 7 5 4 10 -3 6 -8 10 -11 10 -2 0
-4 -4 -4 -10z"/>
<path d="M3120 1784 c0 -2 9 -8 20 -14 11 -6 20 -7 20 -2 0 6 -9 12 -20 15
-11 3 -20 3 -20 1z"/>
<path d="M1830 1770 c-8 -5 -12 -12 -9 -15 4 -3 12 1 19 10 14 17 11 19 -10 5z"/>
<path d="M3170 1766 c0 -2 7 -9 15 -16 9 -7 15 -8 15 -2 0 5 -7 12 -15 16 -8
3 -15 4 -15 2z"/>
<path d="M3210 1747 c0 -2 11 -16 25 -31 35 -37 33 -73 -2 -79 -27 -5 -27 -5
2 -3 27 1 30 5 32 36 2 28 -3 39 -27 58 -17 13 -30 22 -30 19z"/>
<path d="M1752 1720 c-17 -14 -23 -28 -20 -52 3 -30 6 -33 38 -34 l35 -2 -32
5 c-26 3 -33 9 -33 27 0 13 11 35 25 50 28 30 21 34 -13 6z"/>
<path d="M3471 1683 c-10 -26 -10 -27 4 -9 8 11 15 23 15 28 0 15 -7 8 -19
-19z"/>
<path d="M1531 1659 c11 -23 18 -50 16 -60 -3 -11 -1 -17 4 -13 5 3 9 12 9 20
0 16 -37 94 -45 94 -3 0 4 -19 16 -41z"/>
<path d="M1938 1683 c12 -2 22 -9 22 -14 0 -5 7 -9 16 -9 14 0 14 3 4 15 -7 8
-24 14 -39 14 -23 -2 -24 -2 -3 -6z"/>
<path d="M3020 1675 c-8 -9 -8 -15 -2 -15 12 0 26 19 19 26 -2 2 -10 -2 -17
-11z"/>
<path d="M3085 1680 c27 -12 43 -12 25 0 -8 5 -22 9 -30 9 -10 0 -8 -3 5 -9z"/>
<path d="M1870 1670 c-18 -12 -2 -12 25 0 13 6 15 9 5 9 -8 0 -22 -4 -30 -9z"/>
<path d="M3140 1660 c8 -5 20 -10 25 -10 6 0 3 5 -5 10 -8 5 -19 10 -25 10 -5
0 -3 -5 5 -10z"/>
<path d="M1820 1650 c-8 -5 -10 -10 -5 -10 6 0 17 5 25 10 8 5 11 10 5 10 -5
0 -17 -5 -25 -10z"/>
<path d="M1951 1627 c-13 -21 -12 -21 5 -5 10 10 16 20 13 22 -3 3 -11 -5 -18
-17z"/>
<path d="M3030 1641 c0 -6 4 -13 10 -16 6 -3 7 1 4 9 -7 18 -14 21 -14 7z"/>
<path d="M3441 1614 c0 -11 3 -14 6 -6 3 7 2 16 -1 19 -3 4 -6 -2 -5 -13z"/>
<path d="M1650 1599 c0 -11 27 -12 34 -1 2 4 -4 9 -15 9 -10 1 -19 -2 -19 -8z"/>
<path d="M1730 1606 c0 -2 7 -7 16 -10 8 -3 12 -2 9 4 -6 10 -25 14 -25 6z"/>
<path d="M3139 1559 c4 -58 11 -59 14 -3 2 35 5 39 27 36 20 -2 22 0 10 8 -8
5 -24 10 -35 10 -18 0 -20 -5 -16 -51z"/>
<path d="M3220 1599 c0 -5 5 -7 10 -4 6 3 10 8 10 11 0 2 -4 4 -10 4 -5 0 -10
-5 -10 -11z"/>
<path d="M3350 1601 c0 -5 7 -11 15 -15 8 -3 15 -1 15 3 0 5 -7 11 -15 15 -8
3 -15 1 -15 -3z"/>
<path d="M1852 1583 c-1 -12 -8 -24 -14 -26 -10 -4 -10 -6 0 -6 14 -1 16 -42
2 -59 -5 -7 -3 -6 6 1 11 10 14 27 11 63 -2 27 -4 39 -5 27z"/>
<path d="M3465 1560 c9 -16 18 -30 21 -30 2 0 -2 14 -11 30 -9 17 -18 30 -21
30 -2 0 2 -13 11 -30z"/>
<path d="M3178 1563 c7 -3 16 -2 19 1 4 3 -2 6 -13 5 -11 0 -14 -3 -6 -6z"/>
<path d="M3356 1554 c-17 -12 -17 -14 -4 -14 9 0 20 5 23 11 11 17 2 18 -19 3z"/>
<path d="M1763 1553 c9 -2 23 -2 30 0 6 3 -1 5 -18 5 -16 0 -22 -2 -12 -5z"/>
<path d="M3250 1550 c25 -8 87 -13 79 -6 -2 2 -26 6 -54 9 -34 4 -42 3 -25 -3z"/>
<path d="M1515 1539 c-4 -6 -5 -12 -2 -15 2 -3 7 2 10 11 7 17 1 20 -8 4z"/>
<path d="M1708 1543 c6 -2 18 -2 25 0 6 3 1 5 -13 5 -14 0 -19 -2 -12 -5z"/>
<path d="M1894 1390 c-29 -11 -54 -49 -54 -78 0 -31 52 -82 84 -82 13 0 28 -4
31 -10 3 -5 16 -10 28 -10 20 0 20 1 4 17 -16 16 -16 18 0 35 23 26 22 84 -2
108 -25 23 -63 32 -91 20z m57 -30 c13 -8 19 -21 19 -46 0 -27 -5 -37 -26 -46
-35 -16 -58 0 -62 43 -5 48 27 71 69 49z"/>
<path d="M3342 1384 c-34 -23 -25 -55 21 -77 40 -18 50 -47 17 -47 -11 0 -20
5 -20 10 0 6 -9 10 -20 10 -27 0 -25 -16 5 -36 30 -19 70 -12 85 15 14 28 3
50 -36 66 -19 8 -34 21 -34 29 0 18 25 22 35 6 10 -16 35 -12 35 5 0 9 -12 20
-26 25 -33 13 -36 13 -62 -6z"/>
<path d="M1180 1380 c0 -5 11 -10 25 -10 24 0 25 -2 25 -70 0 -56 3 -70 15
-70 12 0 15 14 15 70 0 63 2 70 20 70 11 0 20 5 20 10 0 6 -27 10 -60 10 -33
0 -60 -4 -60 -10z"/>
<path d="M1330 1310 c0 -73 2 -80 20 -80 16 0 20 7 20 35 0 19 4 35 8 35 5 0
16 -16 25 -35 9 -19 23 -35 32 -35 19 0 19 10 -1 38 -14 21 -14 24 5 48 25 32
26 38 5 58 -10 10 -33 16 -65 16 l-49 0 0 -80z m88 33 c3 -19 -1 -23 -22 -23
-21 0 -26 5 -26 26 0 21 4 25 23 22 14 -2 23 -11 25 -25z"/>
<path d="M1531 1368 c-56 -151 -53 -138 -31 -138 11 0 20 7 20 15 0 11 11 15
39 15 25 0 41 -5 45 -15 3 -8 12 -15 21 -15 19 0 20 -9 -13 80 -22 59 -32 76
-50 78 -16 2 -24 -3 -31 -20z m43 -34 c11 -29 6 -44 -14 -44 -22 0 -23 3 -14
38 7 26 19 29 28 6z"/>
<path d="M1670 1310 c0 -63 3 -80 14 -80 11 0 16 15 18 53 l3 52 35 -52 c20
-30 43 -53 53 -53 15 0 17 10 17 80 0 63 -3 80 -14 80 -11 0 -16 -15 -18 -52
l-3 -53 -35 52 c-20 30 -43 53 -52 53 -16 0 -18 -10 -18 -80z"/>
<path d="M2040 1326 c0 -56 3 -67 22 -80 32 -22 55 -20 83 9 21 20 25 34 25
80 0 42 -3 55 -15 55 -11 0 -15 -12 -15 -48 0 -59 -18 -87 -48 -78 -19 7 -22
15 -22 67 0 46 -3 59 -15 59 -12 0 -15 -14 -15 -64z"/>
<path d="M2210 1310 c0 -64 3 -80 15 -80 12 0 15 16 15 80 0 64 -3 80 -15 80
-12 0 -15 -16 -15 -80z"/>
<path d="M2280 1310 l0 -80 40 0 c29 0 40 4 40 15 0 9 -9 15 -25 15 -24 0 -25
2 -25 65 0 51 -3 65 -15 65 -12 0 -15 -16 -15 -80z"/>
<path d="M2440 1331 c0 -52 3 -62 26 -80 32 -25 52 -26 82 -5 19 13 22 24 22
80 0 49 -3 64 -15 64 -10 0 -15 -15 -17 -56 -6 -104 -68 -96 -68 8 0 36 -4 48
-15 48 -12 0 -15 -13 -15 -59z"/>
<path d="M2610 1310 c0 -64 3 -80 15 -80 11 0 15 12 15 50 0 28 4 50 9 50 5 0
23 -22 41 -50 47 -73 60 -67 60 30 0 63 -3 80 -14 80 -11 0 -16 -15 -18 -52
l-3 -53 -34 53 c-21 33 -40 52 -52 52 -17 0 -19 -8 -19 -80z"/>
<path d="M2790 1310 c0 -64 3 -80 15 -80 12 0 15 16 15 80 0 64 -3 80 -15 80
-12 0 -15 -16 -15 -80z"/>
<path d="M2860 1383 c0 -5 12 -41 26 -80 22 -60 31 -73 48 -73 18 0 26 13 48
80 24 73 25 80 9 80 -13 0 -22 -16 -35 -62 -9 -34 -21 -57 -25 -52 -5 5 -16
33 -26 62 -10 30 -23 52 -31 52 -8 0 -14 -3 -14 -7z"/>
<path d="M3040 1310 l0 -80 45 0 c33 0 45 4 45 15 0 10 -10 15 -30 15 -23 0
-30 4 -30 20 0 16 7 20 30 20 20 0 30 5 30 15 0 10 -10 15 -30 15 -23 0 -30 4
-30 20 0 16 7 20 30 20 17 0 30 5 30 10 0 6 -20 10 -45 10 l-45 0 0 -80z"/>
<path d="M3170 1310 c0 -64 3 -80 15 -80 10 0 15 11 15 35 0 19 5 35 10 35 6
0 18 -16 27 -35 10 -21 24 -35 35 -35 17 0 18 2 3 31 -15 28 -15 32 -1 48 19
21 21 52 4 69 -7 7 -34 12 -60 12 l-48 0 0 -80z m85 35 c0 -14 -8 -21 -27 -23
-24 -3 -28 0 -28 23 0 23 4 26 28 23 19 -2 27 -9 27 -23z"/>
<path d="M3470 1310 c0 -64 3 -80 15 -80 12 0 15 16 15 80 0 64 -3 80 -15 80
-12 0 -15 -16 -15 -80z"/>
<path d="M3540 1380 c0 -5 9 -10 20 -10 18 0 20 -7 20 -70 0 -56 3 -70 15 -70
12 0 15 14 15 70 0 68 1 70 25 70 14 0 25 5 25 10 0 6 -27 10 -60 10 -33 0
-60 -4 -60 -10z"/>
<path d="M3680 1383 c0 -5 11 -28 25 -52 14 -23 25 -56 25 -72 0 -19 5 -29 15
-29 9 0 15 9 15 25 0 14 11 48 25 75 29 58 30 60 10 60 -8 0 -21 -13 -30 -30
-9 -16 -18 -30 -20 -30 -2 0 -11 14 -20 30 -14 27 -45 42 -45 23z"/>
</g>
</svg>
